<svg class="svg-icon" style="width: 1em;height: 1em;vertical-align: middle;fill: currentColor;overflow: hidden;" viewBox="0 0 1024 1024" version="1.1" xmlns="http://www.w3.org/2000/svg"><path d="M785.194667 240.341333A380.544 380.544 0 0 0 514.261333 128c-211.114667 0-382.976 171.818667-383.061333 383.018667 0 67.498667 17.621333 133.376 51.114667 191.488L128 900.949333l203.050667-53.290666a383.189333 383.189333 0 0 0 183.04 46.634666h0.170666c211.072 0 382.933333-171.818667 383.018667-383.018666a380.842667 380.842667 0 0 0-112.085333-270.933334m-270.933334 589.312h-0.128a317.696 317.696 0 0 1-162.048-44.416l-11.605333-6.912-120.490667 31.616 32.128-117.461333-7.552-12.032a317.781333 317.781333 0 0 1-48.682666-169.429333c0.085333-175.530667 142.890667-318.336 318.506666-318.336a316.288 316.288 0 0 1 225.066667 93.354666 316.586667 316.586667 0 0 1 93.141333 225.237334c-0.085333 175.530667-142.890667 318.378667-318.336 318.378666m174.634667-238.464c-9.6-4.821333-56.618667-27.946667-65.408-31.146666-8.746667-3.2-15.104-4.778667-21.504 4.778666s-24.746667 31.104-30.336 37.504-11.178667 7.168-20.736 2.389334-40.405333-14.890667-76.970667-47.488c-28.458667-25.386667-47.658667-56.704-53.248-66.304s-0.597333-14.762667 4.224-19.541334c4.309333-4.266667 9.557333-11.178667 14.336-16.768 4.778667-5.589333 6.357333-9.557333 9.557334-15.957333s1.621333-11.989333-0.810667-16.768c-2.389333-4.821333-21.546667-51.925333-29.525333-71.082667-7.722667-18.56-15.616-16.085333-21.504-16.341333a411.733333 411.733333 0 0 0-18.304-0.341333 35.242667 35.242667 0 0 0-25.557334 11.946666c-8.789333 9.6-33.493333 32.725333-33.493333 79.829334s34.304 92.629333 39.082667 99.029333c4.778667 6.4 67.498667 103.04 163.498666 144.512 22.869333 9.856 40.704 15.744 54.570667 20.181333 22.912 7.296 43.776 6.229333 60.288 3.797334 18.389333-2.730667 56.618667-23.125333 64.597333-45.482667 7.978667-22.357333 7.978667-41.514667 5.589334-45.525333-2.389333-4.010667-8.832-6.442667-18.346667-11.221334"  /></svg>